<svg width="489" height="300" viewBox="0 0 489 300" fill="none" xmlns="http://www.w3.org/2000/svg">
<path opacity="0.3" d="M94.2 225.3C82.8 225.3 72 223.3 61.8 219.3C51.8 215.3 42.9 209.2 35.1 201C27.5 192.6 21.5 182.1 17.1 169.5C12.7 156.7 10.5 141.7 10.5 124.5C10.5 105.3 12.6 89.3 16.8 76.5C21 63.5 26.8 53.1 34.2 45.3C41.8 37.5 50.7 32 60.9 28.8C71.1 25.4 82.2 23.7 94.2 23.7C105.6 23.7 116.3 25.7 126.3 29.7C136.5 33.7 145.4 39.9 153 48.3C160.8 56.5 166.9 67 171.3 79.8C175.7 92.4 177.9 107.3 177.9 124.5C177.9 142.3 175.7 157.6 171.3 170.4C166.9 183.2 160.8 193.7 153 201.9C145.2 209.9 136.3 215.8 126.3 219.6C116.3 223.4 105.6 225.3 94.2 225.3ZM93.9 183.6C103.9 183.6 111.7 181 117.3 175.8C122.9 170.4 126.8 163.1 129 153.9C131.4 144.7 132.6 134.5 132.6 123.3C132.6 112.3 131.4 102.5 129 93.9C126.8 85.3 122.9 78.5 117.3 73.5C111.7 68.3 103.9 65.7 93.9 65.7C84.1 65.7 76.4 68.3 70.8 73.5C65.2 78.7 61.3 85.7 59.1 94.5C56.9 103.3 55.8 113.2 55.8 124.2C55.8 135.2 56.9 145.2 59.1 154.2C61.3 163.2 65.2 170.4 70.8 175.8C76.4 181 84.1 183.6 93.9 183.6ZM204.579 225C216.979 212.4 228.879 200.3 240.279 188.7C251.679 176.9 261.879 165.6 270.879 154.8C280.079 143.8 287.279 133.2 292.479 123C297.879 112.8 300.579 102.9 300.579 93.3C300.579 89.1 299.779 85.3 298.179 81.9C296.779 78.5 294.679 75.6 291.879 73.2C289.279 70.8 286.079 69 282.279 67.8C278.679 66.4 274.579 65.7 269.979 65.7C265.379 65.7 261.279 66.4 257.679 67.8C254.079 69 251.079 70.7 248.679 72.9C246.279 75.1 244.379 77.5 242.979 80.1C241.779 82.7 241.179 85.4 241.179 88.2C241.179 94.6 242.179 100.3 244.179 105.3C246.379 110.1 249.279 114.4 252.879 118.2L226.179 142.5C220.379 139.7 215.379 135 211.179 128.4C207.179 121.8 204.079 114.9 201.879 107.7C199.879 100.3 198.879 94.2 198.879 89.4C198.879 78.4 201.879 67.9 207.879 57.9C214.079 47.9 222.979 39.7 234.579 33.3C246.379 26.9 260.679 23.7 277.479 23.7C291.279 23.7 303.279 26.8 313.479 33C323.679 39.2 331.579 47.4 337.179 57.6C342.979 67.6 345.879 78.3 345.879 89.7C345.879 98.7 344.479 107.4 341.679 115.8C338.879 124.2 334.979 132.5 329.979 140.7C325.179 148.7 319.679 156.7 313.479 164.7C307.279 172.5 300.879 180.5 294.279 188.7L274.479 183H348.279V225H204.579Z" fill="#BC7348"/>
<path d="M11.2 200L44.4 123.5H45.2L78.4 200H61.6L40.4 146.2L50.9 139L25.5 200H11.2ZM33.9 173.4H56L61.1 185.6H29.4L33.9 173.4ZM115.529 201.2C111.862 201.2 108.762 200.6 106.229 199.4C103.762 198.133 101.596 196.5 99.7289 194.5L100.829 191.5V200H86.8289V121.1H100.729V163.8V159.3C102.462 157.833 104.762 156.6 107.629 155.6C110.496 154.6 113.762 154.1 117.429 154.1C121.229 154.1 124.696 155 127.829 156.8C130.962 158.6 133.462 161.233 135.329 164.7C137.262 168.1 138.229 172.267 138.229 177.2C138.229 182.133 137.162 186.4 135.029 190C132.962 193.6 130.196 196.367 126.729 198.3C123.262 200.233 119.529 201.2 115.529 201.2ZM112.429 189.4C114.496 189.4 116.396 188.867 118.129 187.8C119.929 186.733 121.362 185.267 122.429 183.4C123.496 181.533 124.029 179.433 124.029 177.1C124.029 174.767 123.496 172.7 122.429 170.9C121.362 169.1 119.929 167.7 118.129 166.7C116.396 165.633 114.496 165.1 112.429 165.1C110.629 165.1 108.929 165.4 107.329 166C105.796 166.533 104.462 167.333 103.329 168.4C102.262 169.4 101.429 170.633 100.829 172.1V182.8C101.629 184.267 102.562 185.5 103.629 186.5C104.762 187.433 106.062 188.167 107.529 188.7C108.996 189.167 110.629 189.4 112.429 189.4ZM145.831 177.6C145.831 173.133 146.865 169.133 148.931 165.6C151.065 162.067 154.031 159.3 157.831 157.3C161.631 155.233 165.998 154.2 170.931 154.2C175.931 154.2 180.265 155.233 183.931 157.3C187.598 159.3 190.398 162.067 192.331 165.6C194.331 169.133 195.331 173.133 195.331 177.6C195.331 182.067 194.331 186.1 192.331 189.7C190.398 193.233 187.598 196.033 183.931 198.1C180.265 200.167 175.865 201.2 170.731 201.2C165.931 201.2 161.631 200.267 157.831 198.4C154.098 196.533 151.165 193.833 149.031 190.3C146.898 186.767 145.831 182.533 145.831 177.6ZM159.931 177.7C159.931 179.967 160.398 182.033 161.331 183.9C162.265 185.7 163.531 187.133 165.131 188.2C166.731 189.267 168.531 189.8 170.531 189.8C172.731 189.8 174.631 189.267 176.231 188.2C177.831 187.133 179.065 185.7 179.931 183.9C180.798 182.033 181.231 179.967 181.231 177.7C181.231 175.367 180.798 173.3 179.931 171.5C179.065 169.7 177.831 168.267 176.231 167.2C174.631 166.133 172.731 165.6 170.531 165.6C168.531 165.6 166.731 166.133 165.131 167.2C163.531 168.267 162.265 169.7 161.331 171.5C160.398 173.3 159.931 175.367 159.931 177.7ZM220.46 202.1C216.527 202.1 213.227 200.9 210.56 198.5C207.893 196.033 206.493 192.867 206.36 189V156.3H220.36V183.8C220.493 185.733 220.993 187.3 221.86 188.5C222.727 189.633 224.193 190.2 226.26 190.2C228.327 190.2 230.093 189.5 231.56 188.1C233.093 186.7 234.26 184.8 235.06 182.4C235.927 179.933 236.36 177.167 236.36 174.1V156.3H250.36V200H237.66L236.56 192L236.76 192.9C235.76 194.7 234.493 196.3 232.96 197.7C231.427 199.1 229.593 200.167 227.46 200.9C225.393 201.7 223.06 202.1 220.46 202.1ZM268.859 137.1H282.859V156.1H293.459V167H282.859V200H268.859V167H262.059V156.1H268.859V137.1ZM349.334 156.3L350.434 164L350.234 163.4C351.967 160.467 354.134 158.2 356.734 156.6C359.334 154.933 362.467 154.1 366.134 154.1C368.534 154.1 370.634 154.433 372.434 155.1C374.3 155.767 375.867 156.767 377.134 158.1C378.4 159.367 379.267 161.033 379.734 163.1L379.234 163.2C381.1 160.467 383.334 158.267 385.934 156.6C388.6 154.933 391.367 154.1 394.234 154.1C398.567 154.1 402 155.333 404.534 157.8C407.134 160.2 408.467 163.333 408.534 167.2V200H394.634V173C394.567 171.067 394.267 169.5 393.734 168.3C393.2 167.033 391.967 166.333 390.034 166.2C387.767 166.2 385.834 167 384.234 168.6C382.7 170.133 381.534 172.133 380.734 174.6C380 177 379.634 179.5 379.634 182.1V200H365.634V173C365.567 171.067 365.2 169.5 364.534 168.3C363.934 167.033 362.667 166.333 360.734 166.2C358.534 166.2 356.667 167 355.134 168.6C353.667 170.133 352.534 172.1 351.734 174.5C351 176.9 350.634 179.367 350.634 181.9V200H336.634V156.3H349.334ZM444.462 201.2C439.128 201.2 434.595 200.2 430.862 198.2C427.195 196.2 424.395 193.433 422.462 189.9C420.528 186.367 419.562 182.3 419.562 177.7C419.562 173.3 420.695 169.333 422.962 165.8C425.228 162.267 428.262 159.467 432.062 157.4C435.862 155.267 440.095 154.2 444.762 154.2C451.028 154.2 456.162 156.033 460.162 159.7C464.228 163.3 466.862 168.533 468.062 175.4L434.062 186.2L430.962 178.6L455.562 170.3L452.662 171.6C452.128 169.867 451.162 168.367 449.762 167.1C448.428 165.767 446.395 165.1 443.662 165.1C441.595 165.1 439.762 165.6 438.162 166.6C436.628 167.533 435.428 168.9 434.562 170.7C433.762 172.433 433.362 174.5 433.362 176.9C433.362 179.633 433.862 181.933 434.862 183.8C435.862 185.6 437.228 186.967 438.962 187.9C440.695 188.833 442.628 189.3 444.762 189.3C446.295 189.3 447.762 189.033 449.162 188.5C450.628 187.967 452.062 187.267 453.462 186.4L459.662 196.8C457.328 198.133 454.795 199.2 452.062 200C449.395 200.8 446.862 201.2 444.462 201.2ZM472.535 192.8C472.535 190.733 473.268 189 474.735 187.6C476.268 186.2 477.935 185.5 479.735 185.5C481.402 185.5 482.968 186.2 484.435 187.6C485.968 189 486.735 190.733 486.735 192.8C486.735 195 485.968 196.767 484.435 198.1C482.968 199.367 481.402 200 479.735 200C477.935 200 476.268 199.367 474.735 198.1C473.268 196.767 472.535 195 472.535 192.8Z" fill="#282828"/>
</svg>
