<svg width="402" height="300" viewBox="0 0 402 300" fill="none" xmlns="http://www.w3.org/2000/svg">
<path opacity="0.3" d="M94.2 225.3C82.8 225.3 72 223.3 61.8 219.3C51.8 215.3 42.9 209.2 35.1 201C27.5 192.6 21.5 182.1 17.1 169.5C12.7 156.7 10.5 141.7 10.5 124.5C10.5 105.3 12.6 89.3 16.8 76.5C21 63.5 26.8 53.1 34.2 45.3C41.8 37.5 50.7 32 60.9 28.8C71.1 25.4 82.2 23.7 94.2 23.7C105.6 23.7 116.3 25.7 126.3 29.7C136.5 33.7 145.4 39.9 153 48.3C160.8 56.5 166.9 67 171.3 79.8C175.7 92.4 177.9 107.3 177.9 124.5C177.9 142.3 175.7 157.6 171.3 170.4C166.9 183.2 160.8 193.7 153 201.9C145.2 209.9 136.3 215.8 126.3 219.6C116.3 223.4 105.6 225.3 94.2 225.3ZM93.9 183.6C103.9 183.6 111.7 181 117.3 175.8C122.9 170.4 126.8 163.1 129 153.9C131.4 144.7 132.6 134.5 132.6 123.3C132.6 112.3 131.4 102.5 129 93.9C126.8 85.3 122.9 78.5 117.3 73.5C111.7 68.3 103.9 65.7 93.9 65.7C84.1 65.7 76.4 68.3 70.8 73.5C65.2 78.7 61.3 85.7 59.1 94.5C56.9 103.3 55.8 113.2 55.8 124.2C55.8 135.2 56.9 145.2 59.1 154.2C61.3 163.2 65.2 170.4 70.8 175.8C76.4 181 84.1 183.6 93.9 183.6ZM325.179 26.1L280.179 112.5L256.479 99.6C258.479 98.8 260.579 98.2 262.779 97.8C265.179 97.4 267.379 97.2 269.379 97.2C276.379 97 283.379 97.8 290.379 99.6C297.379 101.4 303.679 104.6 309.279 109.2C315.079 113.8 319.679 120.1 323.079 128.1C326.679 136.1 328.479 146.3 328.479 158.7C328.479 173.1 325.079 185.5 318.279 195.9C311.679 206.1 302.979 213.9 292.179 219.3C281.379 224.7 269.679 227.4 257.079 227.4C247.279 227.4 236.979 225.4 226.179 221.4C215.379 217.2 206.779 211.7 200.379 204.9L222.579 168.9C225.579 172.7 230.179 176.4 236.379 180C242.579 183.6 249.079 185.4 255.879 185.4C260.279 185.4 264.579 184.3 268.779 182.1C272.979 179.9 276.479 176.6 279.279 172.2C282.079 167.8 283.479 162.4 283.479 156C283.479 147.2 280.979 140.2 275.979 135C271.179 129.8 264.379 127.2 255.579 127.2C249.579 127.2 244.979 127.5 241.779 128.1C238.779 128.5 235.779 129.1 232.779 129.9L231.879 128.7L266.979 63L279.579 68.1H216.879V26.1H325.179Z" fill="#D9D8D4"/>
<path d="M74.7 193.9C73.9 194.567 72.4 195.467 70.2 196.6C68.0667 197.733 65.4333 198.733 62.3 199.6C59.1667 200.467 55.7 200.867 51.9 200.8C46.1 200.667 40.9 199.633 36.3 197.7C31.7667 195.7 27.9 193 24.7 189.6C21.5667 186.2 19.1667 182.3 17.5 177.9C15.8333 173.5 15 168.8 15 163.8C15 158.2 15.8333 153.067 17.5 148.4C19.2333 143.733 21.6667 139.7 24.8 136.3C28 132.9 31.8 130.267 36.2 128.4C40.6 126.533 45.4667 125.6 50.8 125.6C55.7333 125.6 60.1 126.267 63.9 127.6C67.7 128.933 70.8 130.367 73.2 131.9L67.5 145.6C65.8333 144.333 63.6 143.033 60.8 141.7C58.0667 140.3 54.9 139.6 51.3 139.6C48.5 139.6 45.8 140.2 43.2 141.4C40.6667 142.533 38.4 144.167 36.4 146.3C34.4667 148.433 32.9333 150.933 31.8 153.8C30.6667 156.6 30.1 159.667 30.1 163C30.1 166.533 30.6 169.767 31.6 172.7C32.6667 175.633 34.1667 178.167 36.1 180.3C38.0333 182.367 40.3333 183.967 43 185.1C45.7333 186.233 48.8 186.8 52.2 186.8C56.1333 186.8 59.5 186.167 62.3 184.9C65.1 183.633 67.2333 182.3 68.7 180.9L74.7 193.9ZM83.5266 177.6C83.5266 173.133 84.5599 169.133 86.6266 165.6C88.7599 162.067 91.7266 159.3 95.5266 157.3C99.3266 155.233 103.693 154.2 108.627 154.2C113.627 154.2 117.96 155.233 121.627 157.3C125.293 159.3 128.093 162.067 130.027 165.6C132.027 169.133 133.027 173.133 133.027 177.6C133.027 182.067 132.027 186.1 130.027 189.7C128.093 193.233 125.293 196.033 121.627 198.1C117.96 200.167 113.56 201.2 108.427 201.2C103.627 201.2 99.3266 200.267 95.5266 198.4C91.7932 196.533 88.8599 193.833 86.7266 190.3C84.5932 186.767 83.5266 182.533 83.5266 177.6ZM97.6266 177.7C97.6266 179.967 98.0932 182.033 99.0266 183.9C99.9599 185.7 101.227 187.133 102.827 188.2C104.427 189.267 106.227 189.8 108.227 189.8C110.427 189.8 112.327 189.267 113.927 188.2C115.527 187.133 116.76 185.7 117.627 183.9C118.493 182.033 118.927 179.967 118.927 177.7C118.927 175.367 118.493 173.3 117.627 171.5C116.76 169.7 115.527 168.267 113.927 167.2C112.327 166.133 110.427 165.6 108.227 165.6C106.227 165.6 104.427 166.133 102.827 167.2C101.227 168.267 99.9599 169.7 99.0266 171.5C98.0932 173.3 97.6266 175.367 97.6266 177.7ZM156.755 156.3L157.855 164.1L157.655 163.4C159.189 160.667 161.355 158.467 164.155 156.8C166.955 155.067 170.389 154.2 174.455 154.2C178.589 154.2 182.022 155.433 184.755 157.9C187.555 160.3 188.989 163.433 189.055 167.3V200H175.055V172.5C174.989 170.567 174.455 169.033 173.455 167.9C172.522 166.7 170.922 166.1 168.655 166.1C166.522 166.1 164.655 166.8 163.055 168.2C161.455 169.6 160.222 171.5 159.355 173.9C158.489 176.3 158.055 179.067 158.055 182.2V200H144.055V156.3H156.755ZM207.53 137.1H221.53V156.1H232.13V167H221.53V200H207.53V167H200.73V156.1H207.53V137.1ZM261.186 201.2C257.119 201.2 253.419 200.4 250.086 198.8C246.819 197.133 244.219 194.6 242.286 191.2C240.353 187.8 239.386 183.467 239.386 178.2C239.386 173.267 240.386 169 242.386 165.4C244.386 161.8 247.019 159.033 250.286 157.1C253.553 155.1 257.019 154.1 260.686 154.1C265.019 154.1 268.286 154.833 270.486 156.3C272.753 157.7 274.619 159.267 276.086 161L275.486 162.7L276.786 156.3H289.786V200H275.786V190.5L276.886 193.5C276.753 193.5 276.353 193.9 275.686 194.7C275.019 195.433 274.019 196.333 272.686 197.4C271.419 198.4 269.819 199.267 267.886 200C266.019 200.8 263.786 201.2 261.186 201.2ZM265.186 189.8C266.853 189.8 268.353 189.567 269.686 189.1C271.019 188.567 272.186 187.833 273.186 186.9C274.186 185.9 275.053 184.667 275.786 183.2V172.5C275.253 171.033 274.453 169.8 273.386 168.8C272.319 167.733 271.053 166.933 269.586 166.4C268.119 165.8 266.486 165.5 264.686 165.5C262.686 165.5 260.819 166.033 259.086 167.1C257.419 168.1 256.086 169.5 255.086 171.3C254.086 173.1 253.586 175.167 253.586 177.5C253.586 179.833 254.119 181.933 255.186 183.8C256.253 185.667 257.653 187.133 259.386 188.2C261.186 189.267 263.119 189.8 265.186 189.8ZM341.312 196.1C339.378 197.633 336.945 198.867 334.012 199.8C331.145 200.733 328.312 201.2 325.512 201.2C320.512 201.2 316.145 200.3 312.412 198.5C308.745 196.633 305.878 194 303.812 190.6C301.812 187.133 300.812 182.967 300.812 178.1C300.812 173.233 301.912 169.1 304.112 165.7C306.312 162.233 309.178 159.6 312.712 157.8C316.312 156 320.078 155.1 324.012 155.1C327.945 155.1 331.345 155.633 334.212 156.7C337.145 157.767 339.645 159.167 341.712 160.9L334.912 169.9C333.978 169.167 332.678 168.433 331.012 167.7C329.412 166.9 327.512 166.5 325.312 166.5C323.378 166.5 321.612 167 320.012 168C318.412 169 317.145 170.367 316.212 172.1C315.278 173.833 314.812 175.833 314.812 178.1C314.812 180.233 315.312 182.2 316.312 184C317.312 185.8 318.678 187.233 320.412 188.3C322.212 189.3 324.312 189.8 326.712 189.8C328.245 189.8 329.645 189.6 330.912 189.2C332.245 188.733 333.378 188.1 334.312 187.3L341.312 196.1ZM356.163 137.1H370.163V156.1H380.763V167H370.163V200H356.163V167H349.363V156.1H356.163V137.1ZM385.719 192.8C385.719 190.733 386.452 189 387.919 187.6C389.452 186.2 391.119 185.5 392.919 185.5C394.585 185.5 396.152 186.2 397.619 187.6C399.152 189 399.919 190.733 399.919 192.8C399.919 195 399.152 196.767 397.619 198.1C396.152 199.367 394.585 200 392.919 200C391.119 200 389.452 199.367 387.919 198.1C386.452 196.767 385.719 195 385.719 192.8Z" fill="#282828"/>
</svg>
