<svg width="318" height="72" viewBox="0 0 318 72" fill="none" xmlns="http://www.w3.org/2000/svg">
<rect x="318" y="41" width="17" height="313" transform="rotate(90 318 41)" fill="#BC7348"/>
<path d="M6.08 4.896H38.208V13.856H15.36V23.904H35.584V32.864H15.36V43.04H39.104V52H6.08V4.896ZM58.625 52.768C56.0223 52.768 53.697 52.1707 51.649 50.976C49.601 49.7387 47.9797 47.968 46.785 45.664C45.633 43.36 45.057 40.6293 45.057 37.472C45.057 34.3147 45.697 31.6267 46.977 29.408C48.257 27.1893 50.0063 25.504 52.225 24.352C54.4437 23.2 56.961 22.624 59.777 22.624C61.569 22.624 63.2757 22.9013 64.897 23.456C66.561 24.0107 67.9477 24.864 69.057 26.016V28.832V1.504H77.953V52H68.993V46.56L69.697 48.48C68.2463 49.6747 66.625 50.6987 64.833 51.552C63.041 52.3627 60.9717 52.768 58.625 52.768ZM61.569 45.216C62.7637 45.216 63.809 45.0667 64.705 44.768C65.6437 44.4267 66.4543 43.9573 67.137 43.36C67.8623 42.72 68.481 41.9307 68.993 40.992V34.144C68.6517 33.2053 68.1183 32.416 67.393 31.776C66.7103 31.0933 65.857 30.5813 64.833 30.24C63.8517 29.856 62.7637 29.664 61.569 29.664C60.2463 29.664 59.009 30.0053 57.857 30.688C56.7477 31.328 55.8517 32.224 55.169 33.376C54.4863 34.528 54.145 35.8507 54.145 37.344C54.145 38.8373 54.4863 40.1813 55.169 41.376C55.8517 42.5707 56.7477 43.5093 57.857 44.192C59.009 44.8747 60.2463 45.216 61.569 45.216ZM96.1945 53.344C93.6772 53.344 91.5652 52.576 89.8585 51.04C88.1518 49.4613 87.2558 47.4347 87.1705 44.96V24.032H96.1305V41.632C96.2158 42.8693 96.5358 43.872 97.0905 44.64C97.6452 45.3653 98.5838 45.728 99.9065 45.728C101.229 45.728 102.36 45.28 103.299 44.384C104.28 43.488 105.027 42.272 105.539 40.736C106.093 39.1573 106.371 37.3867 106.371 35.424V24.032H115.331V52H107.203L106.499 46.88L106.627 47.456C105.987 48.608 105.176 49.632 104.195 50.528C103.213 51.424 102.04 52.1067 100.675 52.576C99.3518 53.088 97.8585 53.344 96.1945 53.344ZM148.29 49.504C147.052 50.4853 145.495 51.2747 143.618 51.872C141.783 52.4693 139.97 52.768 138.178 52.768C134.978 52.768 132.183 52.192 129.794 51.04C127.447 49.8453 125.612 48.16 124.29 45.984C123.01 43.7653 122.37 41.0987 122.37 37.984C122.37 34.8693 123.074 32.224 124.482 30.048C125.89 27.8293 127.724 26.144 129.986 24.992C132.29 23.84 134.7 23.264 137.218 23.264C139.735 23.264 141.911 23.6053 143.746 24.288C145.623 24.9707 147.223 25.8667 148.546 26.976L144.194 32.736C143.596 32.2667 142.764 31.7973 141.698 31.328C140.674 30.816 139.458 30.56 138.05 30.56C136.812 30.56 135.682 30.88 134.658 31.52C133.634 32.16 132.823 33.0347 132.226 34.144C131.628 35.2533 131.33 36.5333 131.33 37.984C131.33 39.3493 131.65 40.608 132.29 41.76C132.93 42.912 133.804 43.8293 134.914 44.512C136.066 45.152 137.41 45.472 138.946 45.472C139.927 45.472 140.823 45.344 141.634 45.088C142.487 44.7893 143.212 44.384 143.81 43.872L148.29 49.504ZM166.947 52.768C164.344 52.768 161.976 52.256 159.843 51.232C157.752 50.1653 156.088 48.544 154.851 46.368C153.613 44.192 152.995 41.4187 152.995 38.048C152.995 34.8907 153.635 32.16 154.915 29.856C156.195 27.552 157.88 25.7813 159.97 24.544C162.061 23.264 164.28 22.624 166.627 22.624C169.4 22.624 171.491 23.0933 172.899 24.032C174.349 24.928 175.544 25.9307 176.483 27.04L176.099 28.128L176.931 24.032H185.251V52H176.291V45.92L176.995 47.84C176.909 47.84 176.653 48.096 176.227 48.608C175.8 49.0773 175.16 49.6533 174.307 50.336C173.496 50.976 172.472 51.5307 171.235 52C170.04 52.512 168.611 52.768 166.947 52.768ZM169.507 45.472C170.573 45.472 171.533 45.3227 172.387 45.024C173.24 44.6827 173.987 44.2133 174.627 43.616C175.267 42.976 175.821 42.1867 176.291 41.248V34.4C175.949 33.4613 175.437 32.672 174.755 32.032C174.072 31.3493 173.261 30.8373 172.323 30.496C171.384 30.112 170.339 29.92 169.187 29.92C167.907 29.92 166.712 30.2613 165.603 30.944C164.536 31.584 163.683 32.48 163.043 33.632C162.403 34.784 162.083 36.1067 162.083 37.6C162.083 39.0933 162.424 40.4373 163.107 41.632C163.789 42.8267 164.685 43.7653 165.795 44.448C166.947 45.1307 168.184 45.472 169.507 45.472ZM197.107 11.744H206.067V23.904H212.851V30.88H206.067V52H197.107V30.88H192.755V23.904H197.107V11.744ZM219.671 24.032H228.631V52H219.671V24.032ZM219.479 14.112C219.479 12.7893 219.991 11.7013 221.015 10.848C222.081 9.99466 223.212 9.568 224.407 9.568C225.601 9.568 226.689 9.99466 227.671 10.848C228.695 11.7013 229.207 12.7893 229.207 14.112C229.207 15.4347 228.695 16.5227 227.671 17.376C226.689 18.1867 225.601 18.592 224.407 18.592C223.212 18.592 222.081 18.1867 221.015 17.376C219.991 16.5227 219.479 15.4347 219.479 14.112ZM235.682 37.664C235.682 34.8053 236.343 32.2453 237.666 29.984C239.031 27.7227 240.93 25.952 243.362 24.672C245.794 23.3493 248.589 22.688 251.746 22.688C254.946 22.688 257.719 23.3493 260.066 24.672C262.413 25.952 264.205 27.7227 265.442 29.984C266.722 32.2453 267.362 34.8053 267.362 37.664C267.362 40.5227 266.722 43.104 265.442 45.408C264.205 47.6693 262.413 49.4613 260.066 50.784C257.719 52.1067 254.903 52.768 251.618 52.768C248.546 52.768 245.794 52.1707 243.362 50.976C240.973 49.7813 239.095 48.0533 237.73 45.792C236.365 43.5307 235.682 40.8213 235.682 37.664ZM244.706 37.728C244.706 39.1787 245.005 40.5013 245.602 41.696C246.199 42.848 247.01 43.7653 248.034 44.448C249.058 45.1307 250.21 45.472 251.49 45.472C252.898 45.472 254.114 45.1307 255.138 44.448C256.162 43.7653 256.951 42.848 257.506 41.696C258.061 40.5013 258.338 39.1787 258.338 37.728C258.338 36.2347 258.061 34.912 257.506 33.76C256.951 32.608 256.162 31.6907 255.138 31.008C254.114 30.3253 252.898 29.984 251.49 29.984C250.21 29.984 249.058 30.3253 248.034 31.008C247.01 31.6907 246.199 32.608 245.602 33.76C245.005 34.912 244.706 36.2347 244.706 37.728ZM282.549 24.032L283.253 29.024L283.125 28.576C284.106 26.8267 285.493 25.4187 287.285 24.352C289.077 23.2427 291.274 22.688 293.877 22.688C296.522 22.688 298.719 23.4773 300.469 25.056C302.261 26.592 303.178 28.5973 303.221 31.072V52H294.261V34.4C294.218 33.1627 293.877 32.1813 293.237 31.456C292.639 30.688 291.615 30.304 290.165 30.304C288.799 30.304 287.605 30.752 286.581 31.648C285.557 32.544 284.767 33.76 284.213 35.296C283.658 36.832 283.381 38.6027 283.381 40.608V52H274.421V24.032H282.549Z" fill="black"/>
</svg>
