<svg width="342" height="72" viewBox="0 0 342 72" fill="none" xmlns="http://www.w3.org/2000/svg">
<rect x="342" y="40" width="19" height="337" transform="rotate(90 342 40)" fill="#BC7348"/>
<path d="M6.08 4.896H38.208V13.856H15.36V23.904H35.584V32.864H15.36V43.04H39.104V52H6.08V4.896ZM59.905 32.928L65.217 24.032H74.113L63.041 39.392L59.905 32.928ZM75.649 52H64.833L43.265 24.032H54.273L75.649 52ZM58.753 43.04L52.481 52H43.585L54.657 37.024L58.753 43.04ZM98.4565 52.768C96.7925 52.768 95.1498 52.4693 93.5285 51.872C91.9498 51.232 90.6272 50.336 89.5605 49.184L89.8165 46.56V65.44H80.9205V23.392H88.6005L89.8805 28.832L89.1765 26.912C90.6272 25.6747 92.2485 24.6507 94.0405 23.84C95.8325 23.0293 97.9018 22.624 100.249 22.624C102.851 22.624 105.177 23.2427 107.225 24.48C109.273 25.6747 110.873 27.424 112.025 29.728C113.219 31.9893 113.817 34.72 113.817 37.92C113.817 41.0773 113.155 43.7653 111.833 45.984C110.51 48.2027 108.697 49.888 106.393 51.04C104.089 52.192 101.443 52.768 98.4565 52.768ZM96.6645 45.728C98.1152 45.728 99.4378 45.408 100.633 44.768C101.87 44.128 102.851 43.232 103.577 42.08C104.345 40.8853 104.729 39.5413 104.729 38.048C104.729 36.4693 104.387 35.104 103.705 33.952C103.065 32.7573 102.169 31.84 101.017 31.2C99.9072 30.5173 98.6698 30.176 97.3045 30.176C96.1098 30.176 95.0432 30.3467 94.1045 30.688C93.2085 30.9867 92.3978 31.456 91.6725 32.096C90.9898 32.6933 90.3925 33.4613 89.8805 34.4V41.248C90.2218 42.144 90.7125 42.9333 91.3525 43.616C91.9925 44.2987 92.7605 44.832 93.6565 45.216C94.5952 45.5573 95.5978 45.728 96.6645 45.728ZM134.618 52.768C131.205 52.768 128.303 52.128 125.914 50.848C123.567 49.568 121.775 47.7973 120.538 45.536C119.301 43.2747 118.682 40.672 118.682 37.728C118.682 34.912 119.407 32.3733 120.858 30.112C122.309 27.8507 124.25 26.0587 126.682 24.736C129.114 23.3707 131.823 22.688 134.81 22.688C138.821 22.688 142.106 23.8613 144.666 26.208C147.269 28.512 148.954 31.8613 149.722 36.256L127.962 43.168L125.978 38.304L141.722 32.992L139.866 33.824C139.525 32.7147 138.906 31.7547 138.01 30.944C137.157 30.0907 135.855 29.664 134.106 29.664C132.783 29.664 131.61 29.984 130.586 30.624C129.605 31.2213 128.837 32.096 128.282 33.248C127.77 34.3573 127.514 35.68 127.514 37.216C127.514 38.9653 127.834 40.4373 128.474 41.632C129.114 42.784 129.989 43.6587 131.098 44.256C132.207 44.8533 133.445 45.152 134.81 45.152C135.791 45.152 136.73 44.9813 137.626 44.64C138.565 44.2987 139.482 43.8507 140.378 43.296L144.346 49.952C142.853 50.8053 141.231 51.488 139.482 52C137.775 52.512 136.154 52.768 134.618 52.768ZM164.297 24.032L165.129 31.712L164.937 30.56C165.748 28.896 166.857 27.488 168.265 26.336C169.673 25.1413 171.06 24.224 172.425 23.584C173.833 22.944 174.9 22.624 175.625 22.624L175.177 31.584C173.086 31.328 171.294 31.6693 169.801 32.608C168.308 33.5467 167.156 34.784 166.345 36.32C165.534 37.856 165.129 39.4347 165.129 41.056V52H156.233V24.032H164.297ZM182.483 24.032H191.443V52H182.483V24.032ZM182.291 14.112C182.291 12.7893 182.803 11.7013 183.827 10.848C184.894 9.99466 186.024 9.568 187.219 9.568C188.414 9.568 189.502 9.99466 190.483 10.848C191.507 11.7013 192.019 12.7893 192.019 14.112C192.019 15.4347 191.507 16.5227 190.483 17.376C189.502 18.1867 188.414 18.592 187.219 18.592C186.024 18.592 184.894 18.1867 183.827 17.376C182.803 16.5227 182.291 15.4347 182.291 14.112ZM214.431 52.768C211.017 52.768 208.116 52.128 205.727 50.848C203.38 49.568 201.588 47.7973 200.351 45.536C199.113 43.2747 198.495 40.672 198.495 37.728C198.495 34.912 199.22 32.3733 200.671 30.112C202.121 27.8507 204.063 26.0587 206.495 24.736C208.927 23.3707 211.636 22.688 214.623 22.688C218.633 22.688 221.919 23.8613 224.479 26.208C227.081 28.512 228.766 31.8613 229.535 36.256L207.775 43.168L205.791 38.304L221.535 32.992L219.679 33.824C219.337 32.7147 218.719 31.7547 217.823 30.944C216.969 30.0907 215.668 29.664 213.919 29.664C212.596 29.664 211.423 29.984 210.399 30.624C209.417 31.2213 208.649 32.096 208.095 33.248C207.583 34.3573 207.327 35.68 207.327 37.216C207.327 38.9653 207.647 40.4373 208.287 41.632C208.927 42.784 209.801 43.6587 210.911 44.256C212.02 44.8533 213.257 45.152 214.623 45.152C215.604 45.152 216.543 44.9813 217.439 44.64C218.377 44.2987 219.295 43.8507 220.191 43.296L224.159 49.952C222.665 50.8053 221.044 51.488 219.295 52C217.588 52.512 215.967 52.768 214.431 52.768ZM244.174 24.032L244.878 29.024L244.75 28.576C245.731 26.8267 247.118 25.4187 248.91 24.352C250.702 23.2427 252.899 22.688 255.502 22.688C258.147 22.688 260.344 23.4773 262.094 25.056C263.886 26.592 264.803 28.5973 264.846 31.072V52H255.886V34.4C255.843 33.1627 255.502 32.1813 254.862 31.456C254.264 30.688 253.24 30.304 251.79 30.304C250.424 30.304 249.23 30.752 248.206 31.648C247.182 32.544 246.392 33.76 245.838 35.296C245.283 36.832 245.006 38.6027 245.006 40.608V52H236.046V24.032H244.174ZM297.79 49.504C296.552 50.4853 294.995 51.2747 293.118 51.872C291.283 52.4693 289.47 52.768 287.678 52.768C284.478 52.768 281.683 52.192 279.294 51.04C276.947 49.8453 275.112 48.16 273.79 45.984C272.51 43.7653 271.87 41.0987 271.87 37.984C271.87 34.8693 272.574 32.224 273.982 30.048C275.39 27.8293 277.224 26.144 279.486 24.992C281.79 23.84 284.2 23.264 286.718 23.264C289.235 23.264 291.411 23.6053 293.246 24.288C295.123 24.9707 296.723 25.8667 298.046 26.976L293.694 32.736C293.096 32.2667 292.264 31.7973 291.198 31.328C290.174 30.816 288.958 30.56 287.55 30.56C286.312 30.56 285.182 30.88 284.158 31.52C283.134 32.16 282.323 33.0347 281.726 34.144C281.128 35.2533 280.83 36.5333 280.83 37.984C280.83 39.3493 281.15 40.608 281.79 41.76C282.43 42.912 283.304 43.8293 284.414 44.512C285.566 45.152 286.91 45.472 288.446 45.472C289.427 45.472 290.323 45.344 291.134 45.088C291.987 44.7893 292.712 44.384 293.31 43.872L297.79 49.504ZM318.431 52.768C315.017 52.768 312.116 52.128 309.727 50.848C307.38 49.568 305.588 47.7973 304.351 45.536C303.113 43.2747 302.495 40.672 302.495 37.728C302.495 34.912 303.22 32.3733 304.671 30.112C306.121 27.8507 308.063 26.0587 310.495 24.736C312.927 23.3707 315.636 22.688 318.623 22.688C322.633 22.688 325.919 23.8613 328.479 26.208C331.081 28.512 332.766 31.8613 333.535 36.256L311.775 43.168L309.791 38.304L325.535 32.992L323.679 33.824C323.337 32.7147 322.719 31.7547 321.823 30.944C320.969 30.0907 319.668 29.664 317.919 29.664C316.596 29.664 315.423 29.984 314.399 30.624C313.417 31.2213 312.649 32.096 312.095 33.248C311.583 34.3573 311.327 35.68 311.327 37.216C311.327 38.9653 311.647 40.4373 312.287 41.632C312.927 42.784 313.801 43.6587 314.911 44.256C316.02 44.8533 317.257 45.152 318.623 45.152C319.604 45.152 320.543 44.9813 321.439 44.64C322.377 44.2987 323.295 43.8507 324.191 43.296L328.159 49.952C326.665 50.8053 325.044 51.488 323.295 52C321.588 52.512 319.967 52.768 318.431 52.768Z" fill="black"/>
</svg>
