<svg width="32" height="32" viewBox="0 0 32 32" fill="none" xmlns="http://www.w3.org/2000/svg">
<path d="M13.4753 22.0572C14.0201 21.914 14.5064 21.6941 14.9298 21.3943C15.3498 21.097 15.6907 20.7118 15.941 20.2366C16.1889 19.7673 16.3131 19.209 16.3131 18.5608C16.3131 17.761 16.123 17.0789 15.7347 16.5088C15.3484 15.9425 14.7658 15.5443 13.9788 15.3182C14.5567 15.0449 14.9891 14.6929 15.2834 14.2638C15.5755 13.8341 15.7215 13.2965 15.7215 12.653C15.7215 12.058 15.6238 11.5548 15.4289 11.153C15.2293 10.7451 14.9506 10.4213 14.5946 10.1778C14.2329 9.93443 13.8048 9.75688 13.3033 9.65046C12.7988 9.5412 12.2471 9.48828 11.6355 9.48828H5.60828V22.2724H11.8047C12.3774 22.2724 12.9369 22.2004 13.4753 22.0572ZM8.42329 11.6659H11.0567C11.3056 11.6659 11.5488 11.6837 11.7806 11.729C12.0167 11.7695 12.2201 11.8447 12.4003 11.9535C12.5818 12.058 12.7255 12.2073 12.834 12.3981C12.9388 12.5889 12.991 12.8348 12.991 13.1322C12.991 13.6679 12.834 14.0585 12.5102 14.2948C12.1832 14.5349 11.7702 14.6532 11.2716 14.6532H8.42335V11.6659H8.42329ZM8.42329 20.0951V16.5747H11.4833C12.0892 16.5747 12.5818 16.714 12.9511 16.9942C13.3199 17.2784 13.5052 17.7461 13.5052 18.405C13.5052 18.7411 13.4507 19.0194 13.337 19.2336C13.2237 19.4498 13.0677 19.6197 12.8795 19.7437C12.6912 19.8726 12.468 19.9599 12.2162 20.0149C11.9683 20.0704 11.7047 20.095 11.4269 20.095H8.42329V20.0951Z" fill="black"/>
<path d="M18.4156 21.166C18.8294 21.596 19.3215 21.926 19.9103 22.1613C20.4996 22.3938 21.1557 22.5119 21.8848 22.5119C22.931 22.5119 23.8289 22.2722 24.5651 21.7913C25.3099 21.3125 25.856 20.517 26.2158 19.4027H23.9768C23.89 19.6893 23.6658 19.9652 23.2975 20.2233C22.9258 20.4817 22.4826 20.6113 21.9696 20.6113C21.2566 20.6113 20.7063 20.4243 20.3256 20.0524C19.9435 19.6806 19.6961 18.9877 19.6961 18.256H26.3756C26.4235 17.5378 26.3653 16.8518 26.1988 16.1952C26.0309 15.5374 25.7626 14.951 25.3853 14.4383C25.0079 13.9246 24.5277 13.5143 23.9418 13.2116C23.3539 12.9047 22.6679 12.7539 21.8848 12.7539C21.1756 12.7539 20.5351 12.88 19.9544 13.1306C19.3736 13.382 18.875 13.7264 18.4545 14.1628C18.0349 14.5968 17.7159 15.1143 17.485 15.7139C17.2589 16.3115 17.1432 16.9581 17.1432 17.6503C17.1432 18.3661 17.2546 19.0267 17.4755 19.6234C17.6988 20.2234 18.0121 20.734 18.4156 21.166ZM19.8122 16.0435C19.8771 15.8124 19.989 15.5963 20.153 15.3914C20.318 15.1899 20.5337 15.0188 20.7968 14.8813C21.0661 14.742 21.4022 14.6737 21.8084 14.6737C22.4328 14.6737 22.9448 14.8546 23.2467 15.189C23.5501 15.526 23.772 16.0053 23.8327 16.6536H19.696C19.7079 16.473 19.7468 16.2687 19.8122 16.0435Z" fill="black"/>
<path d="M24.358 10.3457H19.176V11.6072H24.358V10.3457Z" fill="black"/>
<path d="M0 0V32H32V0H0ZM30.0206 30.0206H1.97938V1.97938H30.0206V30.0206Z" fill="black"/>
</svg>
