<svg width="638" height="300" viewBox="0 0 638 300" fill="none" xmlns="http://www.w3.org/2000/svg">
<path opacity="0.3" d="M94.2 225.3C82.8 225.3 72 223.3 61.8 219.3C51.8 215.3 42.9 209.2 35.1 201C27.5 192.6 21.5 182.1 17.1 169.5C12.7 156.7 10.5 141.7 10.5 124.5C10.5 105.3 12.6 89.3 16.8 76.5C21 63.5 26.8 53.1 34.2 45.3C41.8 37.5 50.7 32 60.9 28.8C71.1 25.4 82.2 23.7 94.2 23.7C105.6 23.7 116.3 25.7 126.3 29.7C136.5 33.7 145.4 39.9 153 48.3C160.8 56.5 166.9 67 171.3 79.8C175.7 92.4 177.9 107.3 177.9 124.5C177.9 142.3 175.7 157.6 171.3 170.4C166.9 183.2 160.8 193.7 153 201.9C145.2 209.9 136.3 215.8 126.3 219.6C116.3 223.4 105.6 225.3 94.2 225.3ZM93.9 183.6C103.9 183.6 111.7 181 117.3 175.8C122.9 170.4 126.8 163.1 129 153.9C131.4 144.7 132.6 134.5 132.6 123.3C132.6 112.3 131.4 102.5 129 93.9C126.8 85.3 122.9 78.5 117.3 73.5C111.7 68.3 103.9 65.7 93.9 65.7C84.1 65.7 76.4 68.3 70.8 73.5C65.2 78.7 61.3 85.7 59.1 94.5C56.9 103.3 55.8 113.2 55.8 124.2C55.8 135.2 56.9 145.2 59.1 154.2C61.3 163.2 65.2 170.4 70.8 175.8C76.4 181 84.1 183.6 93.9 183.6ZM203.379 26.1H263.079V225H219.279V68.1H203.379V26.1Z" fill="#D9D8D4"/>
<path d="M74.7 188.9C73.9 189.567 72.4 190.467 70.2 191.6C68.0667 192.733 65.4333 193.733 62.3 194.6C59.1667 195.467 55.7 195.867 51.9 195.8C46.1 195.667 40.9 194.633 36.3 192.7C31.7667 190.7 27.9 188 24.7 184.6C21.5667 181.2 19.1667 177.3 17.5 172.9C15.8333 168.5 15 163.8 15 158.8C15 153.2 15.8333 148.067 17.5 143.4C19.2333 138.733 21.6667 134.7 24.8 131.3C28 127.9 31.8 125.267 36.2 123.4C40.6 121.533 45.4667 120.6 50.8 120.6C55.7333 120.6 60.1 121.267 63.9 122.6C67.7 123.933 70.8 125.367 73.2 126.9L67.5 140.6C65.8333 139.333 63.6 138.033 60.8 136.7C58.0667 135.3 54.9 134.6 51.3 134.6C48.5 134.6 45.8 135.2 43.2 136.4C40.6667 137.533 38.4 139.167 36.4 141.3C34.4667 143.433 32.9333 145.933 31.8 148.8C30.6667 151.6 30.1 154.667 30.1 158C30.1 161.533 30.6 164.767 31.6 167.7C32.6667 170.633 34.1667 173.167 36.1 175.3C38.0333 177.367 40.3333 178.967 43 180.1C45.7333 181.233 48.8 181.8 52.2 181.8C56.1333 181.8 59.5 181.167 62.3 179.9C65.1 178.633 67.2333 177.3 68.7 175.9L74.7 188.9ZM105.327 196.2C101.26 196.2 97.5599 195.4 94.2266 193.8C90.9599 192.133 88.3599 189.6 86.4266 186.2C84.4932 182.8 83.5266 178.467 83.5266 173.2C83.5266 168.267 84.5266 164 86.5266 160.4C88.5266 156.8 91.1599 154.033 94.4266 152.1C97.6932 150.1 101.16 149.1 104.827 149.1C109.16 149.1 112.427 149.833 114.627 151.3C116.893 152.7 118.76 154.267 120.227 156L119.627 157.7L120.927 151.3H133.927V195H119.927V185.5L121.027 188.5C120.893 188.5 120.493 188.9 119.827 189.7C119.16 190.433 118.16 191.333 116.827 192.4C115.56 193.4 113.96 194.267 112.027 195C110.16 195.8 107.927 196.2 105.327 196.2ZM109.327 184.8C110.993 184.8 112.493 184.567 113.827 184.1C115.16 183.567 116.327 182.833 117.327 181.9C118.327 180.9 119.193 179.667 119.927 178.2V167.5C119.393 166.033 118.593 164.8 117.527 163.8C116.46 162.733 115.193 161.933 113.727 161.4C112.26 160.8 110.627 160.5 108.827 160.5C106.827 160.5 104.96 161.033 103.227 162.1C101.56 163.1 100.227 164.5 99.2266 166.3C98.2266 168.1 97.7266 170.167 97.7266 172.5C97.7266 174.833 98.2599 176.933 99.3266 178.8C100.393 180.667 101.793 182.133 103.527 183.2C105.327 184.267 107.26 184.8 109.327 184.8ZM162.552 195.9C158.952 195.9 155.586 195.267 152.452 194C149.386 192.733 146.786 190.967 144.652 188.7L150.452 181C152.586 182.933 154.552 184.333 156.352 185.2C158.219 186 159.886 186.4 161.352 186.4C162.486 186.4 163.486 186.3 164.352 186.1C165.286 185.833 166.019 185.467 166.552 185C167.086 184.467 167.352 183.8 167.352 183C167.352 181.867 166.886 180.967 165.952 180.3C165.086 179.633 163.952 179.1 162.552 178.7C161.152 178.233 159.652 177.767 158.052 177.3C154.052 176.033 151.152 174.2 149.352 171.8C147.619 169.333 146.752 166.667 146.752 163.8C146.752 161.6 147.319 159.4 148.452 157.2C149.652 154.933 151.519 153.067 154.052 151.6C156.652 150.067 159.986 149.3 164.052 149.3C167.719 149.3 170.819 149.667 173.352 150.4C175.886 151.133 178.286 152.333 180.552 154L175.252 162.2C173.986 161.2 172.552 160.367 170.952 159.7C169.419 158.967 167.986 158.567 166.652 158.5C165.452 158.433 164.419 158.567 163.552 158.9C162.752 159.233 162.119 159.667 161.652 160.2C161.186 160.733 160.952 161.3 160.952 161.9C160.886 163.167 161.352 164.167 162.352 164.9C163.419 165.633 164.752 166.2 166.352 166.6C167.952 167 169.519 167.467 171.052 168C173.186 168.667 175.019 169.567 176.552 170.7C178.086 171.833 179.252 173.2 180.052 174.8C180.919 176.333 181.352 178.2 181.352 180.4C181.352 183.067 180.652 185.6 179.252 188C177.919 190.333 175.852 192.233 173.052 193.7C170.319 195.167 166.819 195.9 162.552 195.9ZM214.579 196.2C209.246 196.2 204.712 195.2 200.979 193.2C197.312 191.2 194.512 188.433 192.579 184.9C190.646 181.367 189.679 177.3 189.679 172.7C189.679 168.3 190.812 164.333 193.079 160.8C195.346 157.267 198.379 154.467 202.179 152.4C205.979 150.267 210.212 149.2 214.879 149.2C221.146 149.2 226.279 151.033 230.279 154.7C234.346 158.3 236.979 163.533 238.179 170.4L204.179 181.2L201.079 173.6L225.679 165.3L222.779 166.6C222.246 164.867 221.279 163.367 219.879 162.1C218.546 160.767 216.512 160.1 213.779 160.1C211.712 160.1 209.879 160.6 208.279 161.6C206.746 162.533 205.546 163.9 204.679 165.7C203.879 167.433 203.479 169.5 203.479 171.9C203.479 174.633 203.979 176.933 204.979 178.8C205.979 180.6 207.346 181.967 209.079 182.9C210.812 183.833 212.746 184.3 214.879 184.3C216.412 184.3 217.879 184.033 219.279 183.5C220.746 182.967 222.179 182.267 223.579 181.4L229.779 191.8C227.446 193.133 224.912 194.2 222.179 195C219.512 195.8 216.979 196.2 214.579 196.2ZM322.472 139.2C319.672 137.667 316.805 136.4 313.872 135.4C311.005 134.4 308.305 133.9 305.772 133.9C302.639 133.9 300.172 134.533 298.372 135.8C296.572 137.067 295.672 138.967 295.672 141.5C295.672 143.233 296.339 144.8 297.672 146.2C299.072 147.533 300.839 148.733 302.972 149.8C305.172 150.867 307.439 151.833 309.772 152.7C311.905 153.5 314.005 154.467 316.072 155.6C318.205 156.667 320.105 158.033 321.772 159.7C323.439 161.3 324.772 163.333 325.772 165.8C326.772 168.2 327.272 171.167 327.272 174.7C327.272 178.433 326.305 181.9 324.372 185.1C322.439 188.3 319.605 190.9 315.872 192.9C312.139 194.833 307.539 195.8 302.072 195.8C299.272 195.8 296.405 195.533 293.472 195C290.605 194.4 287.772 193.533 284.972 192.4C282.172 191.2 279.472 189.7 276.872 187.9L283.272 176.6C285.005 177.867 286.872 179 288.872 180C290.939 180.933 293.005 181.667 295.072 182.2C297.139 182.733 299.039 183 300.772 183C302.505 183 304.239 182.767 305.972 182.3C307.772 181.767 309.239 180.9 310.372 179.7C311.572 178.5 312.172 176.833 312.172 174.7C312.172 173.233 311.672 171.9 310.672 170.7C309.739 169.5 308.439 168.4 306.772 167.4C305.172 166.4 303.405 165.533 301.472 164.8C299.205 163.933 296.872 162.933 294.472 161.8C292.072 160.667 289.805 159.3 287.672 157.7C285.605 156.033 283.905 154 282.572 151.6C281.305 149.133 280.672 146.133 280.672 142.6C280.672 138.333 281.605 134.633 283.472 131.5C285.405 128.367 288.105 125.9 291.572 124.1C295.039 122.233 299.039 121.2 303.572 121C309.505 121 314.305 121.7 317.972 123.1C321.705 124.5 325.039 126.167 327.972 128.1L322.472 139.2ZM343.273 132.1H357.273V151.1H367.873V162H357.273V195H343.273V162H336.473V151.1H343.273V132.1ZM392.628 197.1C388.695 197.1 385.395 195.9 382.728 193.5C380.061 191.033 378.661 187.867 378.528 184V151.3H392.528V178.8C392.661 180.733 393.161 182.3 394.028 183.5C394.895 184.633 396.361 185.2 398.428 185.2C400.495 185.2 402.261 184.5 403.728 183.1C405.261 181.7 406.428 179.8 407.228 177.4C408.095 174.933 408.528 172.167 408.528 169.1V151.3H422.528V195H409.828L408.728 187L408.928 187.9C407.928 189.7 406.661 191.3 405.128 192.7C403.595 194.1 401.761 195.167 399.628 195.9C397.561 196.7 395.228 197.1 392.628 197.1ZM454.727 196.2C450.66 196.2 447.027 195.267 443.827 193.4C440.627 191.467 438.093 188.7 436.227 185.1C434.427 181.5 433.527 177.233 433.527 172.3C433.527 167.367 434.527 163.167 436.527 159.7C438.527 156.233 441.26 153.6 444.727 151.8C448.193 150 452.127 149.1 456.527 149.1C459.327 149.1 461.993 149.533 464.527 150.4C467.127 151.267 469.293 152.6 471.027 154.4V158.8V116.1H484.927V195H470.927V186.5L472.027 189.5C469.76 191.367 467.227 192.967 464.427 194.3C461.627 195.567 458.393 196.2 454.727 196.2ZM459.327 184.4C461.193 184.4 462.827 184.167 464.227 183.7C465.693 183.167 466.96 182.433 468.027 181.5C469.16 180.5 470.127 179.267 470.927 177.8V167.1C470.393 165.633 469.56 164.4 468.427 163.4C467.36 162.333 466.027 161.533 464.427 161C462.893 160.4 461.193 160.1 459.327 160.1C457.26 160.1 455.327 160.633 453.527 161.7C451.793 162.7 450.393 164.1 449.327 165.9C448.26 167.7 447.727 169.767 447.727 172.1C447.727 174.433 448.26 176.533 449.327 178.4C450.393 180.267 451.793 181.733 453.527 182.8C455.327 183.867 457.26 184.4 459.327 184.4ZM499.329 151.3H513.329V195H499.329V151.3ZM499.029 135.8C499.029 133.733 499.829 132.033 501.429 130.7C503.096 129.367 504.862 128.7 506.729 128.7C508.596 128.7 510.296 129.367 511.829 130.7C513.429 132.033 514.229 133.733 514.229 135.8C514.229 137.867 513.429 139.567 511.829 140.9C510.296 142.167 508.596 142.8 506.729 142.8C504.862 142.8 503.096 142.167 501.429 140.9C499.829 139.567 499.029 137.867 499.029 135.8ZM549.247 196.2C543.914 196.2 539.38 195.2 535.647 193.2C531.98 191.2 529.18 188.433 527.247 184.9C525.314 181.367 524.347 177.3 524.347 172.7C524.347 168.3 525.48 164.333 527.747 160.8C530.014 157.267 533.047 154.467 536.847 152.4C540.647 150.267 544.88 149.2 549.547 149.2C555.814 149.2 560.947 151.033 564.947 154.7C569.014 158.3 571.647 163.533 572.847 170.4L538.847 181.2L535.747 173.6L560.347 165.3L557.447 166.6C556.914 164.867 555.947 163.367 554.547 162.1C553.214 160.767 551.18 160.1 548.447 160.1C546.38 160.1 544.547 160.6 542.947 161.6C541.414 162.533 540.214 163.9 539.347 165.7C538.547 167.433 538.147 169.5 538.147 171.9C538.147 174.633 538.647 176.933 539.647 178.8C540.647 180.6 542.014 181.967 543.747 182.9C545.48 183.833 547.414 184.3 549.547 184.3C551.08 184.3 552.547 184.033 553.947 183.5C555.414 182.967 556.847 182.267 558.247 181.4L564.447 191.8C562.114 193.133 559.58 194.2 556.847 195C554.18 195.8 551.647 196.2 549.247 196.2ZM597.22 195.9C593.62 195.9 590.254 195.267 587.12 194C584.054 192.733 581.454 190.967 579.32 188.7L585.12 181C587.254 182.933 589.22 184.333 591.02 185.2C592.887 186 594.554 186.4 596.02 186.4C597.154 186.4 598.154 186.3 599.02 186.1C599.954 185.833 600.687 185.467 601.22 185C601.754 184.467 602.02 183.8 602.02 183C602.02 181.867 601.554 180.967 600.62 180.3C599.754 179.633 598.62 179.1 597.22 178.7C595.82 178.233 594.32 177.767 592.72 177.3C588.72 176.033 585.82 174.2 584.02 171.8C582.287 169.333 581.42 166.667 581.42 163.8C581.42 161.6 581.987 159.4 583.12 157.2C584.32 154.933 586.187 153.067 588.72 151.6C591.32 150.067 594.654 149.3 598.72 149.3C602.387 149.3 605.487 149.667 608.02 150.4C610.554 151.133 612.954 152.333 615.22 154L609.92 162.2C608.654 161.2 607.22 160.367 605.62 159.7C604.087 158.967 602.654 158.567 601.32 158.5C600.12 158.433 599.087 158.567 598.22 158.9C597.42 159.233 596.787 159.667 596.32 160.2C595.854 160.733 595.62 161.3 595.62 161.9C595.554 163.167 596.02 164.167 597.02 164.9C598.087 165.633 599.42 166.2 601.02 166.6C602.62 167 604.187 167.467 605.72 168C607.854 168.667 609.687 169.567 611.22 170.7C612.754 171.833 613.92 173.2 614.72 174.8C615.587 176.333 616.02 178.2 616.02 180.4C616.02 183.067 615.32 185.6 613.92 188C612.587 190.333 610.52 192.233 607.72 193.7C604.987 195.167 601.487 195.9 597.22 195.9ZM622.047 187.8C622.047 185.733 622.78 184 624.247 182.6C625.78 181.2 627.447 180.5 629.247 180.5C630.914 180.5 632.48 181.2 633.947 182.6C635.48 184 636.247 185.733 636.247 187.8C636.247 190 635.48 191.767 633.947 193.1C632.48 194.367 630.914 195 629.247 195C627.447 195 625.78 194.367 624.247 193.1C622.78 191.767 622.047 190 622.047 187.8Z" fill="#282828"/>
</svg>
