<svg width="32" height="32" viewBox="0 0 32 32" fill="none" xmlns="http://www.w3.org/2000/svg">
<path d="M11.7244 13.1411H8.51234C8.36978 13.1411 8.25427 13.2569 8.25427 13.3997V23.7414C8.25427 23.8842 8.36978 24 8.51234 24H11.7244C11.8669 24 11.9824 23.8842 11.9824 23.7414V13.3997C11.9824 13.2569 11.8669 13.1411 11.7244 13.1411Z" fill="black"/>
<path d="M10.1195 8C8.95081 8 8 8.95187 8 10.1219C8 11.2924 8.95081 12.2446 10.1195 12.2446C11.2873 12.2446 12.2374 11.2924 12.2374 10.1219C12.2374 8.95187 11.2873 8 10.1195 8Z" fill="black"/>
<path d="M19.8943 12.8843C18.6043 12.8843 17.6506 13.4401 17.0722 14.0716V13.3999C17.0722 13.2571 16.9567 13.1413 16.8141 13.1413H13.738C13.5955 13.1413 13.48 13.2571 13.48 13.3999V23.7416C13.48 23.8844 13.5955 24.0002 13.738 24.0002H16.9431C17.0856 24.0002 17.2011 23.8844 17.2011 23.7416V18.6249C17.2011 16.9006 17.6684 16.2289 18.8677 16.2289C20.1738 16.2289 20.2776 17.3058 20.2776 18.7136V23.7416C20.2776 23.8845 20.3931 24.0002 20.5357 24.0002H23.7419C23.8844 24.0002 23.9999 23.8845 23.9999 23.7416V18.0691C23.9999 15.5052 23.5121 12.8843 19.8943 12.8843Z" fill="black"/>
</svg>
