<svg width="61" height="101" viewBox="0 0 61 101" fill="none" xmlns="http://www.w3.org/2000/svg">
<path d="M0 100.14V41.8103H5.46376V44.2529C5.93514 43.5672 6.44938 43.0101 7.00647 42.5816C7.60641 42.1102 8.22778 41.746 8.87057 41.4889C9.55622 41.2317 10.2419 41.1032 10.9275 41.1032C11.6989 41.1032 12.4274 41.2532 13.113 41.5531C13.7987 41.8531 14.3986 42.2816 14.9129 42.8387C15.4271 43.3958 15.8128 44.1243 16.0699 45.0242C16.4984 44.1672 17.0126 43.4601 17.6126 42.903C18.2554 42.3459 18.9839 41.9174 19.7981 41.6174C20.6552 41.2746 21.5551 41.1032 22.4978 41.1032C23.5263 41.1032 24.4048 41.3175 25.1333 41.746C25.9047 42.1317 26.526 42.6887 26.9974 43.4172C27.5116 44.1029 27.8759 44.96 28.0902 45.9884C28.3473 46.974 28.4544 48.0882 28.4116 49.331V71.5717H22.8192V51.0022C22.8192 49.5024 22.7335 48.3882 22.5621 47.6597C22.3907 46.9312 22.1336 46.4384 21.7908 46.1813C21.4908 45.9241 21.1265 45.7956 20.698 45.7956C20.0552 45.7956 19.4338 46.0956 18.8339 46.6955C18.2768 47.2526 17.8054 48.024 17.4198 49.0096C17.0769 49.9952 16.9055 51.0879 16.9055 52.2878V71.5717H11.506V51.2593C11.506 49.031 11.3132 47.5526 10.9275 46.8241C10.5847 46.0956 9.96333 45.7313 9.06341 45.7313C8.63488 45.7313 8.20635 45.8813 7.77782 46.1813C7.39215 46.4384 7.02789 46.8455 6.68507 47.4026C6.34225 47.9168 6.0637 48.5596 5.84944 49.331C5.67803 50.1023 5.59232 51.0022 5.59232 52.0307V100.14H0Z" fill="black"/>
<path d="M47.6311 72.2788C46.5598 72.2788 45.5099 72.1073 44.4814 71.7645C43.4958 71.4645 42.553 71.0146 41.6531 70.4146C40.7961 69.7719 40.0247 69.0005 39.3391 68.1006L37.9892 71.5717H33.3611V0H39.789H40.3675V0.578516C40.1533 0.835633 40.0033 1.11418 39.9176 1.41415C39.8747 1.71412 39.8533 2.22836 39.8533 2.95686V45.6028C40.2818 44.9171 40.7961 44.3172 41.396 43.8029C41.996 43.2458 42.6387 42.7745 43.3244 42.3888C44.0529 41.9602 44.8028 41.6388 45.5742 41.4246C46.3884 41.2103 47.1812 41.1032 47.9525 41.1032C49.7524 41.146 51.3808 41.4889 52.8378 42.1317C54.3376 42.7316 55.6232 43.6744 56.6945 44.96C57.7659 46.2027 58.5801 47.7668 59.1372 49.6524C59.7371 51.5379 60.0371 53.7448 60.0371 56.2732C60.0371 58.9729 59.6943 61.3298 59.0086 63.3439C58.3658 65.358 57.4659 67.0293 56.3089 68.3577C55.1518 69.6862 53.8234 70.6718 52.3235 71.3146C50.8237 71.9574 49.2595 72.2788 47.6311 72.2788ZM46.5384 67.1364C47.4811 67.1364 48.3596 66.965 49.1738 66.6222C50.0309 66.2793 50.7808 65.7008 51.4236 64.8866C52.1093 64.0724 52.6449 63.0011 53.0306 61.6726C53.4163 60.3442 53.6091 58.7372 53.6091 56.8517C53.6091 55.0947 53.4377 53.552 53.0949 52.2235C52.7949 50.8951 52.345 49.7809 51.745 48.881C51.1451 47.9382 50.3951 47.2526 49.4952 46.8241C48.6382 46.3527 47.6954 46.117 46.6669 46.117C45.2528 46.117 44.0315 46.5455 43.003 47.4026C42.0174 48.2596 41.246 49.481 40.6889 51.0665C40.1318 52.6092 39.8533 54.4519 39.8533 56.5946C39.8533 58.2658 39.9819 59.7657 40.239 61.0941C40.4961 62.3797 40.8818 63.4725 41.396 64.3724C41.9531 65.2723 42.6388 65.9579 43.453 66.4293C44.31 66.9007 45.3385 67.1364 46.5384 67.1364Z" fill="black"/>
</svg>
