<svg width="56" height="56" viewBox="0 0 56 56" fill="none" xmlns="http://www.w3.org/2000/svg">
<g clip-path="url(#clip0_79_203)">
<path d="M22.0037 28.0964C23.2587 30.6881 25.3544 32.7784 27.9494 34.0268C28.1408 34.1174 28.3525 34.1566 28.5637 34.1406C28.7748 34.1245 28.9782 34.0538 29.1537 33.9353L32.965 31.3893C33.1334 31.2751 33.328 31.2054 33.5306 31.1868C33.7332 31.1681 33.9372 31.2011 34.1237 31.2826L41.2584 34.3469C41.5023 34.4484 41.706 34.6272 41.8382 34.8559C41.9704 35.0845 42.0238 35.3503 41.9902 35.6123C41.764 37.3773 40.9025 38.9994 39.5669 40.1751C38.2312 41.3508 36.5129 41.9996 34.7335 42C29.2346 42 23.961 39.8156 20.0727 35.9273C16.1844 32.039 14 26.7654 14 21.2665C14.0004 19.4871 14.6492 17.7688 15.8249 16.4331C17.0006 15.0975 18.6227 14.236 20.3877 14.0098C20.6497 13.9762 20.9155 14.0296 21.1441 14.1618C21.3728 14.294 21.5516 14.4977 21.6531 14.7416L24.7174 21.8916C24.7971 22.0751 24.8304 22.2753 24.8144 22.4747C24.7985 22.6741 24.7337 22.8665 24.6259 23.035L22.08 26.9073C21.9666 27.0824 21.9001 27.2837 21.8867 27.4919C21.8734 27.7001 21.9137 27.9082 22.0037 28.0964V28.0964Z" stroke="black" stroke-width="1.5" stroke-linecap="round" stroke-linejoin="round"/>
</g>
<defs>
<clipPath id="clip0_79_203">
<rect width="56" height="56" fill="white"/>
</clipPath>
</defs>
</svg>
