<svg width="56" height="56" viewBox="0 0 56 56" fill="none" xmlns="http://www.w3.org/2000/svg">
<g clip-path="url(#clip0_79_208)">
<path d="M23.75 24.5005C23.75 26.8397 25.6608 28.7505 28 28.7505C30.3392 28.7505 32.25 26.8397 32.25 24.5005C32.25 22.1613 30.3392 20.2505 28 20.2505C25.6608 20.2505 23.75 22.1613 23.75 24.5005ZM28 14.7505C33.4386 14.7505 37.75 18.9024 37.75 24.8505C37.75 26.6964 36.9767 28.9329 35.2788 31.547C33.6681 34.0269 31.2576 36.7967 28 39.8256C24.7424 36.7967 22.3319 34.0269 20.7212 31.547C19.0233 28.9329 18.25 26.6964 18.25 24.8505C18.25 18.9024 22.5614 14.7505 28 14.7505Z" stroke="black" stroke-width="1.5"/>
</g>
<defs>
<clipPath id="clip0_79_208">
<rect width="56" height="56" fill="white"/>
</clipPath>
</defs>
</svg>
